<svg width="27" height="10" viewBox="0 0 27 10" fill="none" xmlns="http://www.w3.org/2000/svg">
<path d="M5.78409 0.272727V5.96591C5.78409 7.24432 4.90625 8.16477 3.44886 8.16477C1.99148 8.16477 1.11364 7.24432 1.11364 5.96591V0.272727H0.0568182V6.05114C0.0568182 7.84091 1.39489 9.15341 3.44886 9.15341C5.50284 9.15341 6.84091 7.84091 6.84091 6.05114V0.272727H5.78409ZM11.3513 9H12.4082V5.59091H14.3173C14.394 5.59091 14.4664 5.59091 14.5388 5.58665L16.3798 9H17.607L15.634 5.39489C16.7462 5.01562 17.2661 4.10795 17.2661 2.94886C17.2661 1.40625 16.3457 0.272727 14.3002 0.272727H11.3513V9ZM12.4082 4.63636V1.21023H14.2661C15.6809 1.21023 16.2263 1.90057 16.2263 2.94886C16.2263 3.99716 15.6809 4.63636 14.2832 4.63636H12.4082ZM21.4271 9H26.5408V8.0625H22.4839V0.272727H21.4271V9Z" fill="#AAAAAA"/>
</svg>
